<mxfile host="app.diagrams.net" agent="Mozilla/5.0 (Windows NT 10.0; Win64; x64) AppleWebKit/537.36 (KHTML, like Gecko) Chrome/131.0.0.0 Safari/537.36" version="24.8.6">
  <diagram name="Page-1" id="MlDcwgoewqWfSiDRXycf">
    <mxGraphModel dx="3474" dy="1373" grid="1" gridSize="10" guides="1" tooltips="1" connect="1" arrows="1" fold="1" page="1" pageScale="1" pageWidth="827" pageHeight="1169" math="0" shadow="0">
      <root>
        <mxCell id="0" />
        <mxCell id="1" parent="0" />
        <mxCell id="ePcu2__Ns3SAzIQf-7O0-29" style="edgeStyle=orthogonalEdgeStyle;rounded=0;orthogonalLoop=1;jettySize=auto;html=1;" edge="1" parent="1" source="ePcu2__Ns3SAzIQf-7O0-5">
          <mxGeometry relative="1" as="geometry">
            <mxPoint x="70" y="190" as="targetPoint" />
          </mxGeometry>
        </mxCell>
        <mxCell id="ePcu2__Ns3SAzIQf-7O0-5" value="Create User" style="rounded=0;whiteSpace=wrap;html=1;direction=west;" vertex="1" parent="1">
          <mxGeometry x="10" y="40" width="120" height="40" as="geometry" />
        </mxCell>
        <mxCell id="ePcu2__Ns3SAzIQf-7O0-12" value="" style="edgeStyle=orthogonalEdgeStyle;rounded=0;orthogonalLoop=1;jettySize=auto;html=1;" edge="1" parent="1" target="ePcu2__Ns3SAzIQf-7O0-11">
          <mxGeometry relative="1" as="geometry">
            <mxPoint x="120" y="220" as="sourcePoint" />
            <Array as="points">
              <mxPoint x="200" y="220" />
              <mxPoint x="200" y="220" />
            </Array>
          </mxGeometry>
        </mxCell>
        <mxCell id="ePcu2__Ns3SAzIQf-7O0-11" value="access profile" style="rounded=0;whiteSpace=wrap;html=1;direction=west;" vertex="1" parent="1">
          <mxGeometry x="400" y="200" width="120" height="40" as="geometry" />
        </mxCell>
        <mxCell id="ePcu2__Ns3SAzIQf-7O0-13" style="edgeStyle=orthogonalEdgeStyle;rounded=0;orthogonalLoop=1;jettySize=auto;html=1;exitX=0.5;exitY=0;exitDx=0;exitDy=0;" edge="1" parent="1" source="ePcu2__Ns3SAzIQf-7O0-5" target="ePcu2__Ns3SAzIQf-7O0-5">
          <mxGeometry relative="1" as="geometry" />
        </mxCell>
        <mxCell id="ePcu2__Ns3SAzIQf-7O0-14" value="/signup" style="text;html=1;align=center;verticalAlign=middle;whiteSpace=wrap;rounded=0;" vertex="1" parent="1">
          <mxGeometry x="70" y="120" width="60" height="30" as="geometry" />
        </mxCell>
        <mxCell id="ePcu2__Ns3SAzIQf-7O0-15" value="GET /profile" style="text;html=1;align=center;verticalAlign=middle;resizable=0;points=[];autosize=1;strokeColor=none;fillColor=none;" vertex="1" parent="1">
          <mxGeometry x="255" y="188" width="90" height="30" as="geometry" />
        </mxCell>
        <mxCell id="ePcu2__Ns3SAzIQf-7O0-32" style="edgeStyle=orthogonalEdgeStyle;rounded=0;orthogonalLoop=1;jettySize=auto;html=1;" edge="1" parent="1" source="ePcu2__Ns3SAzIQf-7O0-17">
          <mxGeometry relative="1" as="geometry">
            <mxPoint x="200" y="220" as="targetPoint" />
          </mxGeometry>
        </mxCell>
        <mxCell id="ePcu2__Ns3SAzIQf-7O0-17" value="change password" style="rounded=0;whiteSpace=wrap;html=1;direction=west;" vertex="1" parent="1">
          <mxGeometry x="400" y="290" width="120" height="40" as="geometry" />
        </mxCell>
        <mxCell id="ePcu2__Ns3SAzIQf-7O0-19" value="PUt\T/profile/passward" style="text;html=1;align=center;verticalAlign=middle;resizable=0;points=[];autosize=1;strokeColor=none;fillColor=none;" vertex="1" parent="1">
          <mxGeometry x="230" y="280" width="140" height="30" as="geometry" />
        </mxCell>
        <mxCell id="ePcu2__Ns3SAzIQf-7O0-31" style="edgeStyle=orthogonalEdgeStyle;rounded=0;orthogonalLoop=1;jettySize=auto;html=1;" edge="1" parent="1" source="ePcu2__Ns3SAzIQf-7O0-20">
          <mxGeometry relative="1" as="geometry">
            <mxPoint x="20" y="220" as="targetPoint" />
          </mxGeometry>
        </mxCell>
        <mxCell id="ePcu2__Ns3SAzIQf-7O0-20" value="login user" style="rounded=0;whiteSpace=wrap;html=1;direction=west;" vertex="1" parent="1">
          <mxGeometry x="-210" y="200" width="100" height="40" as="geometry" />
        </mxCell>
        <mxCell id="ePcu2__Ns3SAzIQf-7O0-23" value="/login" style="text;html=1;align=center;verticalAlign=middle;whiteSpace=wrap;rounded=0;" vertex="1" parent="1">
          <mxGeometry x="-80" y="188" width="60" height="30" as="geometry" />
        </mxCell>
        <mxCell id="ePcu2__Ns3SAzIQf-7O0-24" value="" style="sketch=0;outlineConnect=0;fontColor=#232F3E;gradientColor=none;fillColor=#232F3D;strokeColor=none;dashed=0;verticalLabelPosition=bottom;verticalAlign=top;align=center;html=1;fontSize=12;fontStyle=0;aspect=fixed;pointerEvents=1;shape=mxgraph.aws4.authenticated_user;" vertex="1" parent="1">
          <mxGeometry x="30.5" y="200" width="79" height="79" as="geometry" />
        </mxCell>
        <mxCell id="ePcu2__Ns3SAzIQf-7O0-41" style="edgeStyle=orthogonalEdgeStyle;rounded=0;orthogonalLoop=1;jettySize=auto;html=1;" edge="1" parent="1">
          <mxGeometry relative="1" as="geometry">
            <mxPoint x="190" y="475" as="targetPoint" />
            <mxPoint x="70" y="320" as="sourcePoint" />
            <Array as="points">
              <mxPoint x="70" y="475" />
            </Array>
          </mxGeometry>
        </mxCell>
        <mxCell id="ePcu2__Ns3SAzIQf-7O0-34" value="user" style="text;html=1;align=center;verticalAlign=middle;whiteSpace=wrap;rounded=0;" vertex="1" parent="1">
          <mxGeometry x="40" y="280" width="60" height="30" as="geometry" />
        </mxCell>
        <mxCell id="ePcu2__Ns3SAzIQf-7O0-44" style="edgeStyle=orthogonalEdgeStyle;rounded=0;orthogonalLoop=1;jettySize=auto;html=1;" edge="1" parent="1" source="ePcu2__Ns3SAzIQf-7O0-35">
          <mxGeometry relative="1" as="geometry">
            <mxPoint x="590" y="420" as="targetPoint" />
            <Array as="points">
              <mxPoint x="440" y="480" />
              <mxPoint x="440" y="420" />
            </Array>
          </mxGeometry>
        </mxCell>
        <mxCell id="ePcu2__Ns3SAzIQf-7O0-35" value="Vote" style="rounded=0;whiteSpace=wrap;html=1;" vertex="1" parent="1">
          <mxGeometry x="200" y="460" width="120" height="40" as="geometry" />
        </mxCell>
        <mxCell id="ePcu2__Ns3SAzIQf-7O0-43" value="list of electors" style="rounded=1;whiteSpace=wrap;html=1;" vertex="1" parent="1">
          <mxGeometry x="600" y="400" width="120" height="40" as="geometry" />
        </mxCell>
        <mxCell id="ePcu2__Ns3SAzIQf-7O0-45" value="list of electors" style="rounded=1;whiteSpace=wrap;html=1;" vertex="1" parent="1">
          <mxGeometry x="600" y="520" width="120" height="40" as="geometry" />
        </mxCell>
        <mxCell id="ePcu2__Ns3SAzIQf-7O0-47" value="" style="endArrow=classic;html=1;rounded=0;" edge="1" parent="1">
          <mxGeometry width="50" height="50" relative="1" as="geometry">
            <mxPoint x="440" y="540" as="sourcePoint" />
            <mxPoint x="600" y="540" as="targetPoint" />
          </mxGeometry>
        </mxCell>
        <mxCell id="ePcu2__Ns3SAzIQf-7O0-48" value="" style="endArrow=none;html=1;rounded=0;" edge="1" parent="1">
          <mxGeometry width="50" height="50" relative="1" as="geometry">
            <mxPoint x="440" y="540" as="sourcePoint" />
            <mxPoint x="440" y="480" as="targetPoint" />
            <Array as="points">
              <mxPoint x="440" y="540" />
            </Array>
          </mxGeometry>
        </mxCell>
        <mxCell id="ePcu2__Ns3SAzIQf-7O0-49" value="GET/candidates" style="text;html=1;align=center;verticalAlign=middle;whiteSpace=wrap;rounded=0;" vertex="1" parent="1">
          <mxGeometry x="450" y="390" width="90" height="30" as="geometry" />
        </mxCell>
        <mxCell id="ePcu2__Ns3SAzIQf-7O0-52" value="POST/vote:candidateId" style="text;html=1;align=center;verticalAlign=middle;whiteSpace=wrap;rounded=0;" vertex="1" parent="1">
          <mxGeometry x="450" y="510" width="130" height="30" as="geometry" />
        </mxCell>
        <mxCell id="ePcu2__Ns3SAzIQf-7O0-53" value="" style="endArrow=none;html=1;rounded=0;" edge="1" parent="1">
          <mxGeometry width="50" height="50" relative="1" as="geometry">
            <mxPoint x="440" y="640" as="sourcePoint" />
            <mxPoint x="440" y="540" as="targetPoint" />
            <Array as="points" />
          </mxGeometry>
        </mxCell>
        <mxCell id="ePcu2__Ns3SAzIQf-7O0-54" value="Role = &quot;Voter&quot;" style="text;html=1;align=center;verticalAlign=middle;whiteSpace=wrap;rounded=0;" vertex="1" parent="1">
          <mxGeometry x="80" y="440" width="90" height="30" as="geometry" />
        </mxCell>
        <mxCell id="ePcu2__Ns3SAzIQf-7O0-56" value="" style="endArrow=classic;html=1;rounded=0;" edge="1" parent="1">
          <mxGeometry width="50" height="50" relative="1" as="geometry">
            <mxPoint x="440" y="640" as="sourcePoint" />
            <mxPoint x="600" y="640" as="targetPoint" />
          </mxGeometry>
        </mxCell>
        <mxCell id="ePcu2__Ns3SAzIQf-7O0-57" value="list of electors" style="rounded=1;whiteSpace=wrap;html=1;" vertex="1" parent="1">
          <mxGeometry x="610" y="620" width="120" height="40" as="geometry" />
        </mxCell>
        <mxCell id="ePcu2__Ns3SAzIQf-7O0-58" value="GET /voute/count" style="text;html=1;align=center;verticalAlign=middle;whiteSpace=wrap;rounded=0;" vertex="1" parent="1">
          <mxGeometry x="450" y="610" width="100" height="30" as="geometry" />
        </mxCell>
        <mxCell id="ePcu2__Ns3SAzIQf-7O0-60" value="Elector management" style="rounded=1;whiteSpace=wrap;html=1;" vertex="1" parent="1">
          <mxGeometry x="240" y="870" width="150" height="50" as="geometry" />
        </mxCell>
        <mxCell id="ePcu2__Ns3SAzIQf-7O0-61" value="" style="endArrow=none;html=1;rounded=0;" edge="1" parent="1">
          <mxGeometry width="50" height="50" relative="1" as="geometry">
            <mxPoint x="70" y="900" as="sourcePoint" />
            <mxPoint x="70" y="470" as="targetPoint" />
          </mxGeometry>
        </mxCell>
        <mxCell id="ePcu2__Ns3SAzIQf-7O0-63" value="" style="endArrow=classic;html=1;rounded=0;" edge="1" parent="1">
          <mxGeometry width="50" height="50" relative="1" as="geometry">
            <mxPoint x="70" y="894.41" as="sourcePoint" />
            <mxPoint x="230" y="894" as="targetPoint" />
          </mxGeometry>
        </mxCell>
        <mxCell id="ePcu2__Ns3SAzIQf-7O0-64" value="Role = &quot;admin&quot;" style="text;html=1;align=center;verticalAlign=middle;whiteSpace=wrap;rounded=0;" vertex="1" parent="1">
          <mxGeometry x="100" y="860" width="90" height="30" as="geometry" />
        </mxCell>
        <mxCell id="ePcu2__Ns3SAzIQf-7O0-65" value="create new elector" style="rounded=1;whiteSpace=wrap;html=1;" vertex="1" parent="1">
          <mxGeometry x="650" y="800" width="120" height="30" as="geometry" />
        </mxCell>
        <mxCell id="ePcu2__Ns3SAzIQf-7O0-66" value="Update existing elecotor" style="rounded=1;whiteSpace=wrap;html=1;" vertex="1" parent="1">
          <mxGeometry x="650" y="880" width="120" height="30" as="geometry" />
        </mxCell>
        <mxCell id="ePcu2__Ns3SAzIQf-7O0-67" value="Delete a elector" style="rounded=1;whiteSpace=wrap;html=1;" vertex="1" parent="1">
          <mxGeometry x="650" y="960" width="120" height="30" as="geometry" />
        </mxCell>
        <mxCell id="ePcu2__Ns3SAzIQf-7O0-68" style="edgeStyle=orthogonalEdgeStyle;rounded=0;orthogonalLoop=1;jettySize=auto;html=1;exitX=0.5;exitY=1;exitDx=0;exitDy=0;" edge="1" parent="1" source="ePcu2__Ns3SAzIQf-7O0-65" target="ePcu2__Ns3SAzIQf-7O0-65">
          <mxGeometry relative="1" as="geometry" />
        </mxCell>
        <mxCell id="ePcu2__Ns3SAzIQf-7O0-69" value="" style="endArrow=classic;html=1;rounded=0;exitX=1;exitY=0.5;exitDx=0;exitDy=0;entryX=0;entryY=0.5;entryDx=0;entryDy=0;" edge="1" parent="1" target="ePcu2__Ns3SAzIQf-7O0-66">
          <mxGeometry width="50" height="50" relative="1" as="geometry">
            <mxPoint x="390" y="894.66" as="sourcePoint" />
            <mxPoint x="610" y="894.66" as="targetPoint" />
            <Array as="points" />
          </mxGeometry>
        </mxCell>
        <mxCell id="ePcu2__Ns3SAzIQf-7O0-70" value="" style="endArrow=classic;html=1;rounded=0;entryX=0;entryY=0.5;entryDx=0;entryDy=0;" edge="1" parent="1" target="ePcu2__Ns3SAzIQf-7O0-65">
          <mxGeometry width="50" height="50" relative="1" as="geometry">
            <mxPoint x="490" y="890" as="sourcePoint" />
            <mxPoint x="480" y="890" as="targetPoint" />
            <Array as="points">
              <mxPoint x="490" y="815" />
            </Array>
          </mxGeometry>
        </mxCell>
        <mxCell id="ePcu2__Ns3SAzIQf-7O0-71" value="" style="endArrow=classic;html=1;rounded=0;entryX=0;entryY=0.5;entryDx=0;entryDy=0;" edge="1" parent="1" target="ePcu2__Ns3SAzIQf-7O0-67">
          <mxGeometry width="50" height="50" relative="1" as="geometry">
            <mxPoint x="490" y="900" as="sourcePoint" />
            <mxPoint x="480" y="890" as="targetPoint" />
            <Array as="points">
              <mxPoint x="490" y="975" />
            </Array>
          </mxGeometry>
        </mxCell>
        <mxCell id="ePcu2__Ns3SAzIQf-7O0-72" value="POST/candidates" style="text;html=1;align=center;verticalAlign=middle;whiteSpace=wrap;rounded=0;" vertex="1" parent="1">
          <mxGeometry x="510" y="790" width="90" height="30" as="geometry" />
        </mxCell>
        <mxCell id="ePcu2__Ns3SAzIQf-7O0-73" value="PUT&lt;div&gt;/candidates/:candidateId&lt;/div&gt;" style="text;html=1;align=center;verticalAlign=middle;whiteSpace=wrap;rounded=0;" vertex="1" parent="1">
          <mxGeometry x="505" y="860" width="125" height="30" as="geometry" />
        </mxCell>
        <mxCell id="ePcu2__Ns3SAzIQf-7O0-74" value="DELETE&lt;div&gt;/candidates/:candidateID&lt;/div&gt;" style="text;html=1;align=center;verticalAlign=middle;whiteSpace=wrap;rounded=0;" vertex="1" parent="1">
          <mxGeometry x="500" y="940" width="140" height="30" as="geometry" />
        </mxCell>
        <mxCell id="ePcu2__Ns3SAzIQf-7O0-77" value="Role = &quot;Voter&quot;" style="text;html=1;align=center;verticalAlign=middle;whiteSpace=wrap;rounded=0;" vertex="1" parent="1">
          <mxGeometry x="460" y="540" width="90" height="30" as="geometry" />
        </mxCell>
        <mxCell id="ePcu2__Ns3SAzIQf-7O0-78" value="NO Role" style="text;html=1;align=center;verticalAlign=middle;whiteSpace=wrap;rounded=0;" vertex="1" parent="1">
          <mxGeometry x="450" y="640" width="60" height="30" as="geometry" />
        </mxCell>
        <mxCell id="ePcu2__Ns3SAzIQf-7O0-79" value="NO Role" style="text;html=1;align=center;verticalAlign=middle;whiteSpace=wrap;rounded=0;" vertex="1" parent="1">
          <mxGeometry x="450" y="420" width="60" height="30" as="geometry" />
        </mxCell>
      </root>
    </mxGraphModel>
  </diagram>
</mxfile>
